# xmcd
# 
# Track frame offsets:
#     150
#     20443
#     39735
#     55626
#     76153
#     94484
#     112047
#     135997
#     155307
#     176895
#     196059
#     215288
# 
# Disc length: 3137
# 
# Revision: 7
# Processed by: cddbd v1.5.2PL0 Copyright (c) Steve Scherf et al.
# Submitted via: fre:ac v1.0.31
# 
DISCID=980c3f0c
DTITLE=任震昊，姚斯婷 - 粵唱粵經典·不老情歌Ⅳ
DYEAR=2011
DGENRE=Pop
TTITLE0=今夜你會不會來
TTITLE1=難得有情人
TTITLE2=漁光閃閃
TTITLE3=舊情綿綿
TTITLE4=流浪花
TTITLE5=偏偏喜歡你
TTITLE6=風繼續吹
TTITLE7=一起走過的日子
TTITLE8=風再起時
TTITLE9=一生何求
TTITLE10=其實我介意
TTITLE11=講不出再見
EXTD=
EXTT0=
EXTT1=
EXTT2=
EXTT3=
EXTT4=
EXTT5=
EXTT6=
EXTT7=
EXTT8=
EXTT9=
EXTT10=
EXTT11=
PLAYORDER=
